# Blender v2.71 (sub 0) OBJ File: ''
# www.blender.org
mtllib LeftLeg.mtl
o LeftLeg.008
v 0.503963 -0.960331 0.597332
v 0.471537 -0.880490 0.513229
v 0.495965 -0.960331 0.575778
v 0.242593 -0.839708 0.036516
v 0.222542 -0.838624 -0.062879
v 0.216831 -0.867890 -0.002122
v 0.290421 -0.823084 -0.117735
v 0.267693 -0.952709 -0.159948
v 0.189970 -0.953177 -0.089484
v 0.439817 -0.918887 -0.124587
v 0.437770 -0.954452 -0.142108
v 0.368324 -0.953176 -0.173450
v 0.373246 -0.838624 -0.133828
v 0.439977 -0.960079 0.583872
v 0.416829 -0.890000 0.524042
v 0.344446 -0.969569 0.472114
v 0.636576 -0.969569 0.334585
v 0.634301 -0.952250 0.329758
v 0.609174 -0.890000 0.433489
v 0.374780 -0.861257 0.434723
v 0.342171 -0.952251 0.467286
v 0.567124 -0.861257 0.344169
v 0.420947 -0.839708 -0.047448
v 0.329526 -0.810416 -0.014386
v 0.471047 -0.898917 -0.054598
v 0.217125 -0.885313 0.068674
v 0.204313 -0.956195 0.094215
v 0.502164 -0.956194 -0.046009
v 0.175926 -0.954452 -0.018838
v 0.534971 -0.899993 0.085150
v 0.264092 -0.899994 0.212676
v 0.477233 -0.801931 0.398309
v 0.711850 0.188438 -0.093431
v 0.478370 0.188440 -0.402467
v 0.409711 0.464333 -0.178249
v 0.520693 -0.188437 -0.494154
v 0.214683 -0.188437 -0.636726
v 0.234333 0.188440 -0.537671
v 0.288020 0.464333 -0.267052
v 0.397901 -0.841208 -0.151977
v 0.295759 -0.841208 -0.212305
v 0.478369 -0.565316 -0.402468
v 0.234333 -0.565314 -0.537673
v -0.035306 -0.188437 -0.496893
v 0.038815 0.188440 -0.428307
v 0.249055 -0.841208 -0.195561
v 0.038815 -0.565314 -0.428309
v -0.067643 -0.565316 -0.097052
v -0.167922 -0.188439 -0.108970
v -0.067643 0.188438 -0.097050
v 0.227627 0.464333 -0.233271
v 0.218482 -0.841208 -0.029453
v 0.031053 -0.565316 0.275872
v -0.077271 -0.188439 0.347970
v 0.010862 0.188438 0.298672
v 0.143690 0.464332 -0.029449
v 0.263807 -0.841210 0.199017
v 0.244343 0.188437 0.607707
v 0.281687 0.464331 0.401007
v 0.356479 -0.841210 0.401005
v 0.264534 -0.565317 0.584906
v 0.202018 -0.188440 0.699393
v 0.488379 0.188437 0.742912
v 0.434694 0.464331 0.472295
v 0.466367 -0.841210 0.472290
v 0.488379 -0.565317 0.742909
v 0.508031 -0.188440 0.841965
v 0.758017 -0.188440 0.702133
v 0.683899 0.188437 0.633548
v 0.513074 -0.841210 0.446164
v 0.683899 -0.565317 0.633546
v 0.890633 -0.188439 0.314209
v 0.790354 0.188438 0.302290
v 0.481399 0.464331 0.446169
v 0.555032 -0.841210 0.234687
v 0.790354 -0.565317 0.302289
v 0.711850 -0.565316 -0.093433
v 0.506492 -0.841208 0.006217
v 0.533697 0.464331 0.006221
v 0.361355 0.577020 0.102621
v 0.799985 -0.188439 -0.142731
v 0.361355 -0.898303 0.102617
v 0.189016 0.464331 0.199021
v 0.579022 0.464331 0.234691
v 0.632322 -0.960077 0.493318
v 0.567710 -0.880490 0.467951
v 0.559951 -0.960582 0.589239
v 0.526244 -0.870980 0.502414
v 0.592138 -0.960330 0.530501
v 0.600136 -0.960330 0.552056
vt 0.348723 0.735221
vt 0.348723 0.888765
vt 0.502266 0.888765
vt 0.502266 0.735221
vt 0.425494 0.735221
vt 0.425494 0.888765
vt 0.329826 0.730295
vt 0.329826 0.903004
vt 0.502536 0.903004
vt 0.502536 0.730295
vt 0.461031 0.879374
vt 0.465924 0.880312
vt 0.472123 0.876921
vt 0.424674 0.839585
vt 0.438213 0.871137
vt 0.449229 0.875412
vt 0.459620 0.711035
vt 0.438344 0.716288
vt 0.426878 0.728080
vt 0.455198 0.879651
vt 0.480803 0.719036
vt 0.489213 0.732114
vt 0.494388 0.844082
vt 0.484012 0.874141
vt 0.421552 0.752476
vt 0.492458 0.757064
vt 0.421552 0.914299
vt 0.455752 0.929248
vt 0.492068 0.918189
vn -0.833900 0.523800 0.173900
vn -0.637200 0.337400 -0.692900
vn -0.963400 0.265300 0.037200
vn 0.384700 0.390000 -0.836600
vn -0.124100 0.329100 -0.936100
vn 0.113400 0.634000 0.765000
vn -0.742000 0.276400 0.610800
vn 0.976500 0.166400 0.136700
vn -0.746800 0.444600 0.494600
vn 0.779100 0.602600 -0.172900
vn 0.286800 0.956500 -0.054400
vn 0.648700 0.604700 -0.462000
vn -0.979200 0.195800 0.052300
vn 0.259200 0.956900 -0.131100
vn -0.243500 0.969500 -0.026700
vn 0.805500 0.368000 -0.464400
vn 0.812300 0.219400 -0.540300
vn -0.896200 0.378900 0.230900
vn 0.942800 0.031400 -0.331900
vn -0.937600 -0.026500 0.346700
vn 0.918800 0.223200 -0.325500
vn -0.905700 0.263800 0.331900
vn -0.903900 0.279900 0.323400
vn -0.439300 0.877300 0.193300
vn 0.835700 0.397200 -0.379200
vn -0.727000 0.617600 0.300100
vn 0.623000 0.758600 -0.190800
vn 0.657200 0.567100 -0.496500
vn 0.412800 0.211300 -0.886000
vn 0.385200 0.606900 -0.695200
vn 0.372400 -0.681000 -0.630500
vn 0.468200 -0.258200 -0.845100
vn -0.473100 0.246900 -0.845700
vn -0.353700 0.689200 -0.632400
vn -0.217600 -0.764300 -0.607000
vn -0.473100 -0.246900 -0.845700
vn -0.920700 -0.254300 -0.295900
vn -0.919100 0.237900 -0.314200
vn -0.719000 0.655400 -0.231100
vn -0.673400 -0.728800 -0.123900
vn -0.938000 -0.241700 0.248300
vn -0.950500 0.246900 0.188600
vn -0.802200 0.575500 0.159100
vn -0.735700 -0.661400 0.146000
vn -0.696300 0.488400 0.526000
vn -0.681300 -0.661900 0.312600
vn -0.754300 -0.325800 0.569900
vn -0.761400 0.232700 0.605100
vn -0.385200 0.606900 0.695200
vn -0.437300 -0.595100 0.674200
vn -0.545300 -0.325200 0.772600
vn -0.412800 0.211300 0.886000
vn 0.473100 0.246900 0.845700
vn 0.353700 0.689100 0.632400
vn 0.363800 -0.666900 0.650300
vn 0.473000 -0.246900 0.845700
vn 0.919100 0.237900 0.314200
vn 0.705300 0.671700 0.226700
vn 0.734800 -0.662500 0.145800
vn 0.920700 -0.254300 0.295900
vn 0.950500 -0.246900 -0.188600
vn 0.638100 -0.633200 -0.438000
vn 0.412400 0.867800 -0.277200
vn 0.771200 -0.256600 -0.582600
vn 0.761400 0.232700 -0.605100
vn 0.256800 -0.950300 -0.176200
vn 0.118700 -0.972400 -0.201000
vn 0.238000 0.914900 -0.326100
vn -0.059500 -0.984300 -0.166100
vn -0.146400 0.954000 -0.261800
vn -0.322600 -0.944700 -0.059400
vn -0.378000 0.912600 -0.155700
vn -0.504700 0.857500 0.100100
vn -0.437900 -0.894800 0.086900
vn -0.451600 0.867800 0.207200
vn -0.368200 -0.914300 0.168900
vn -0.119800 -0.975500 0.184700
vn -0.146700 0.937700 0.315000
vn 0.073700 -0.988500 0.131700
vn 0.146400 0.954000 0.261800
vn 0.251000 -0.966700 0.049800
vn 0.369400 0.913500 0.170500
vn 0.504700 0.857500 -0.100100
vn 0.950500 0.246900 -0.188600
vn 0.325100 -0.943100 -0.069100
vn 0.802200 0.575500 -0.159100
vn 0.762600 -0.626200 -0.162000
vn 0.575700 0.632500 0.518100
vn 0.596300 0.793600 0.120500
vn -0.004300 -1.000000 0.001600
vn -0.032300 0.825900 0.563000
vn -0.819000 0.556300 0.140300
vn -0.632500 0.341300 -0.695300
vn -0.878700 0.447400 -0.166600
vn 0.449300 0.274700 -0.850100
vn -0.120900 0.326500 -0.937400
vn 0.035100 0.655600 0.754300
vn -0.662000 0.119300 0.739900
vn 0.947900 0.318500 0.006400
vn 0.704700 0.634600 -0.317400
vn -0.838100 0.423400 0.343900
vn 0.462200 0.867600 -0.183300
vn 0.728800 0.559000 -0.395500
vn 0.148500 0.973200 -0.175500
vn -0.282900 0.956800 0.067500
vn -0.276300 0.957800 0.079200
vn 0.063000 -0.996100 0.061300
vn -0.774100 0.564000 0.287500
vn 0.668000 0.593500 -0.449000
vn 0.468200 0.258200 -0.845100
vn 0.459600 0.626200 -0.629800
vn 0.356000 -0.678500 -0.642600
vn 0.412800 -0.211300 -0.886000
vn -0.007800 -0.999700 -0.023500
vn -0.919100 -0.237900 -0.314200
vn -0.920700 0.254300 -0.295900
vn -0.721500 0.625500 -0.297100
vn -0.678700 -0.701200 -0.218100
vn -0.934400 -0.304000 0.185400
vn -0.704400 -0.684900 0.186400
vn -0.731500 0.593600 0.335600
vn -0.663600 -0.555300 0.501300
vn -0.745900 -0.303800 0.592800
vn -0.771200 0.256600 0.582600
vn -0.340100 0.592900 0.729900
vn -0.460200 -0.602700 0.651900
vn -0.412800 -0.211300 0.886000
vn -0.468200 0.258200 0.845100
vn 0.473100 -0.246900 0.845700
vn 0.920700 0.254300 0.295900
vn 0.709600 0.623800 0.327600
vn 0.744400 -0.623400 0.239200
vn 0.919100 -0.237900 0.314200
vn 0.629100 -0.615000 -0.475300
vn 0.761400 -0.232700 -0.605100
vn 0.771200 0.256600 -0.582600
vn 0.770100 -0.619400 -0.152800
vn 0.532400 0.617000 0.579600
vn 0.332800 0.932000 0.143200
vn -0.002700 -1.000000 -0.005800
vn 0.004700 -1.000000 -0.001700
vn -0.012600 -0.999700 -0.020600
vn 0.006900 -0.996900 0.078800
vn -0.008400 -0.999800 -0.017800
vn -0.273800 0.800300 0.533500
vn 0.353800 0.689200 0.632400
vn -0.327000 -0.742400 -0.584700
vn -0.006500 -0.999900 -0.013800
vn -0.014200 -0.999400 -0.030100
vn 0.024800 -0.998300 0.052700
vn 0.462100 0.823600 0.328700
vn -0.094200 0.933900 0.344900
vn 0.776100 0.602500 -0.186400
vn 0.937400 0.014300 -0.347800
vn 0.542600 0.703600 0.458700
vn 0.103600 0.712000 0.694500
vn 0.485500 0.695700 0.529400
vn 0.009300 0.727000 0.686600
vn -0.937400 -0.014300 0.347900
usemtl Material_pika.png.001
s off
f 4/1/1 5/2/1 6/3/1
f 7/1/2 8/2/2 5/4/2
f 5/1/3 9/2/3 6/4/3
f 10/1/4 11/2/4 12/3/4
f 13/1/5 12/2/5 8/3/5
f 3/5/6 2/6/6 14/4/6
f 14/1/7 15/2/7 16/4/7
f 17/1/8 18/2/8 19/3/8
f 15/1/9 20/2/9 21/4/9
f 19/4/10 18/1/10 22/3/10
f 22/1/11 23/2/11 24/3/11
f 25/1/12 10/2/12 23/4/12
f 26/1/13 6/3/13 27/4/13
f 23/1/14 13/2/14 24/4/14
f 24/1/15 7/2/15 5/3/15
f 28/1/16 10/3/16 25/4/16
f 28/1/17 11/3/17 10/4/17
f 6/1/18 29/3/18 27/4/18
f 28/1/19 18/3/19 17/4/19
f 16/1/20 21/3/20 27/4/20
f 28/1/21 30/3/21 18/4/21
f 21/1/22 31/3/22 27/4/22
f 31/1/23 26/3/23 27/4/23
f 4/3/24 20/4/24 32/1/24
f 28/1/25 25/3/25 30/4/25
f 26/3/26 31/4/26 4/2/26
f 22/4/27 30/1/27 23/3/27
f 33/7/28 34/8/28 35/9/28
f 36/7/29 37/8/29 38/9/29
f 34/7/30 38/8/30 39/9/30
f 40/7/31 41/8/31 42/10/31
f 42/7/32 43/8/32 36/10/32
f 37/7/33 44/8/33 45/9/33
f 38/7/34 45/8/34 39/10/34
f 41/7/35 46/8/35 43/10/35
f 43/7/36 47/8/36 37/10/36
f 47/7/37 48/8/37 49/9/37
f 44/7/38 49/8/38 45/10/38
f 45/7/39 50/8/39 51/10/39
f 46/7/40 52/8/40 48/9/40
f 48/7/41 53/8/41 49/10/41
f 49/7/42 54/8/42 50/10/42
f 50/7/43 55/8/43 56/10/43
f 52/7/44 57/8/44 53/9/44
f 55/7/45 58/8/45 59/9/45
f 57/7/46 60/8/46 53/10/46
f 53/7/47 61/8/47 54/10/47
f 54/7/48 62/8/48 58/9/48
f 58/7/49 63/8/49 64/9/49
f 60/7/50 65/8/50 61/10/50
f 61/7/51 66/8/51 62/10/51
f 62/7/52 67/8/52 63/9/52
f 67/7/53 68/8/53 69/9/53
f 63/7/54 69/8/54 64/10/54
f 65/7/55 70/8/55 71/9/55
f 66/7/56 71/8/56 68/9/56
f 68/7/57 72/8/57 69/10/57
f 69/7/58 73/8/58 74/10/58
f 70/7/59 75/8/59 76/9/59
f 71/7/60 76/8/60 72/9/60
f 76/7/61 77/8/61 72/10/61
f 78/7/62 40/8/62 77/10/62
f 79/7/63 35/9/63 80/10/63
f 77/7/64 42/8/64 81/10/64
f 81/7/65 36/8/65 34/9/65
f 82/7/66 40/9/66 78/10/66
f 82/7/67 41/9/67 40/10/67
f 35/7/68 39/9/68 80/10/68
f 82/7/69 46/9/69 41/10/69
f 39/7/70 51/9/70 80/10/70
f 82/7/71 52/9/71 46/10/71
f 51/7/72 56/9/72 80/10/72
f 56/7/73 83/9/73 80/10/73
f 82/7/74 57/9/74 52/10/74
f 83/7/75 59/9/75 80/10/75
f 82/7/76 60/9/76 57/10/76
f 82/7/77 65/9/77 60/10/77
f 59/7/78 64/9/78 80/10/78
f 82/7/79 70/9/79 65/10/79
f 64/7/80 74/9/80 80/10/80
f 82/7/81 75/9/81 70/10/81
f 74/7/82 84/9/82 80/10/82
f 84/7/83 79/9/83 80/10/83
f 33/9/84 73/10/84 72/7/84
f 82/7/85 78/9/85 75/10/85
f 79/9/86 84/10/86 33/8/86
f 75/7/87 78/8/87 77/9/87
f 85/1/88 19/2/88 86/6/88
f 22/2/89 32/3/89 86/5/89
f 87/11/90 1/12/90 3/13/90
f 88/1/91 32/2/91 2/5/91
f 26/4/92 4/1/92 6/3/92
f 8/2/93 9/3/93 5/4/93
f 9/2/94 29/3/94 6/4/94
f 13/4/95 10/1/95 12/3/95
f 7/4/96 13/1/96 8/3/96
f 2/6/97 15/3/97 14/4/97
f 15/2/98 21/3/98 16/4/98
f 85/4/99 17/1/99 19/3/99
f 30/1/100 25/2/100 23/3/100
f 20/2/101 31/3/101 21/4/101
f 32/4/102 22/1/102 24/3/102
f 10/2/103 13/3/103 23/4/103
f 13/2/104 7/3/104 24/4/104
f 4/4/105 24/1/105 5/3/105
f 24/2/106 4/3/106 32/1/106
f 17/14/107 85/15/107 89/16/107
f 31/4/108 20/1/108 4/2/108
f 79/10/109 33/7/109 35/9/109
f 34/10/110 36/7/110 38/9/110
f 35/10/111 34/7/111 39/9/111
f 41/8/112 43/9/112 42/10/112
f 43/8/113 37/9/113 36/10/113
f 38/10/33 37/7/33 45/9/33
f 45/8/34 51/9/34 39/10/34
f 8/17/114 12/18/114 11/19/114
f 47/8/36 44/9/36 37/10/36
f 44/10/115 47/7/115 49/9/115
f 49/8/116 50/9/116 45/10/116
f 50/8/117 56/9/117 51/10/117
f 47/10/118 46/7/118 48/9/118
f 53/8/119 54/9/119 49/10/119
f 55/8/43 83/9/43 56/10/43
f 48/10/120 52/7/120 53/9/120
f 83/10/121 55/7/121 59/9/121
f 60/8/122 61/9/122 53/10/122
f 61/8/123 62/9/123 54/10/123
f 55/10/124 54/7/124 58/9/124
f 59/10/125 58/7/125 64/9/125
f 65/8/126 66/9/126 61/10/126
f 66/8/127 67/9/127 62/10/127
f 58/10/128 62/7/128 63/9/128
f 63/10/53 67/7/53 69/9/53
f 54/8/42 55/9/42 50/10/42
f 66/10/55 65/7/55 71/9/55
f 67/10/129 66/7/129 68/9/129
f 72/8/130 73/9/130 69/10/130
f 73/8/131 84/9/131 74/10/131
f 71/10/132 70/7/132 76/9/132
f 68/10/133 71/7/133 72/9/133
f 77/8/61 81/9/61 72/10/61
f 40/8/134 42/9/134 77/10/134
f 42/8/135 36/9/135 81/10/135
f 33/10/136 81/7/136 34/9/136
f 81/8/84 33/9/84 72/7/84
f 84/10/86 73/7/86 33/8/86
f 76/10/137 75/7/137 77/9/137
f 89/5/138 85/1/138 86/6/138
f 19/1/139 22/2/139 86/5/139
f 87/11/140 3/13/140 89/16/140
f 90/20/141 87/11/141 89/16/141
f 9/21/142 8/17/142 29/22/142
f 16/23/143 3/13/143 14/24/143
f 29/22/144 8/17/144 11/19/144
f 32/2/145 20/3/145 2/5/145
f 69/8/146 74/9/146 64/10/146
f 46/8/147 47/9/147 43/10/147
f 28/25/148 27/26/148 29/22/148
f 11/19/148 28/25/148 29/22/148
f 28/25/149 17/14/149 27/26/149
f 27/26/149 17/14/149 16/23/149
f 3/13/150 16/23/150 89/16/150
f 17/14/150 89/16/150 16/23/150
f 32/3/151 88/4/151 86/5/151
f 15/4/152 2/5/152 20/3/152
f 18/1/153 30/2/153 22/3/153
usemtl Material_NONE.004
f 89/16/154 86/27/154 90/20/154
f 86/27/155 88/28/155 90/20/155
f 1/12/156 87/11/156 88/28/156
f 88/28/157 87/11/157 90/20/157
f 2/29/158 1/12/158 88/28/158
usemtl Material.032
f 1/12/159 2/29/159 3/13/159
