# Blender v2.71 (sub 0) OBJ File: ''
# www.blender.org
mtllib RightLeg.mtl
o RightLeg.009
v -0.579457 -0.960331 0.487177
v -0.571458 -0.960331 0.465623
v -0.547031 -0.880490 0.403073
v -0.318088 -0.839707 -0.073639
v -0.292619 -0.885312 -0.041481
v -0.292325 -0.867890 -0.112277
v -0.365915 -0.823083 -0.227890
v -0.298036 -0.838624 -0.173034
v -0.343186 -0.952708 -0.270103
v -0.265464 -0.953176 -0.199639
v -0.515311 -0.918886 -0.234742
v -0.448739 -0.838623 -0.243983
v -0.443818 -0.953175 -0.283605
v -0.515471 -0.960079 0.473717
v -0.419939 -0.969569 0.361959
v -0.492323 -0.890000 0.413887
v -0.712069 -0.969569 0.224430
v -0.707816 -0.960077 0.383163
v -0.684668 -0.890000 0.323334
v -0.417666 -0.952251 0.357131
v -0.450273 -0.861257 0.324568
v -0.610464 -0.899993 -0.025005
v -0.709795 -0.952250 0.219603
v -0.642618 -0.861257 0.234014
v -0.552727 -0.801931 0.288153
v -0.405019 -0.810416 -0.124541
v -0.546540 -0.898917 -0.164753
v -0.496442 -0.839707 -0.157603
v -0.279807 -0.956195 -0.015940
v -0.577658 -0.956194 -0.156164
v -0.513264 -0.954451 -0.252263
v -0.251420 -0.954452 -0.128993
v -0.339586 -0.899994 0.102521
v -0.787344 0.188439 -0.203587
v -0.609190 0.464332 -0.103934
v -0.485204 0.464333 -0.288404
v -0.596187 -0.188436 -0.604309
v -0.553864 0.188441 -0.512622
v -0.309827 0.188441 -0.647826
v -0.363513 0.464333 -0.377207
v -0.473394 -0.841207 -0.262133
v -0.553862 -0.565315 -0.512624
v -0.371254 -0.841207 -0.322460
v -0.309827 -0.565313 -0.647829
v -0.290177 -0.188436 -0.746882
v -0.114308 0.188441 -0.538462
v -0.324549 -0.841207 -0.305716
v -0.114308 -0.565313 -0.538465
v -0.040188 -0.188436 -0.607049
v 0.092428 -0.188439 -0.219126
v -0.303121 0.464333 -0.343426
v -0.007851 0.188439 -0.207205
v -0.007851 -0.565315 -0.207208
v -0.106546 -0.565315 0.165716
v 0.001777 -0.188439 0.237814
v -0.219184 0.464332 -0.139604
v -0.086355 0.188439 0.188517
v -0.293976 -0.841208 -0.139608
v -0.264509 0.464332 0.088866
v -0.357181 0.464331 0.290852
v -0.339301 -0.841210 0.088862
v -0.431973 -0.841210 0.290849
v -0.340028 -0.565317 0.474751
v -0.319836 0.188437 0.497552
v -0.510188 0.464331 0.362140
v -0.541861 -0.841210 0.362135
v -0.277512 -0.188440 0.589237
v -0.563872 -0.565317 0.632754
v -0.563872 0.188437 0.632757
v -0.583524 -0.188440 0.731809
v -0.759392 0.188437 0.523393
v -0.759392 -0.565317 0.523390
v -0.833511 -0.188440 0.591977
v -0.966128 -0.188439 0.204053
v -0.556892 0.464331 0.336014
v -0.865848 0.188439 0.192135
v -0.588567 -0.841210 0.336009
v -0.865848 -0.565317 0.192133
v -0.787344 -0.565315 -0.203589
v -0.581985 -0.841208 -0.103938
v -0.436850 0.577021 -0.007534
v -0.875479 -0.188438 -0.252887
v -0.436850 -0.898302 -0.007538
v -0.630525 -0.841210 0.124532
v -0.654516 0.464331 0.124536
v -0.667632 -0.960330 0.420346
v -0.643203 -0.880490 0.357796
v -0.635444 -0.960582 0.479084
v -0.601737 -0.870980 0.392259
v -0.675629 -0.960330 0.441901
vt 0.348723 0.735221
vt 0.502266 0.735221
vt 0.502266 0.888765
vt 0.348723 0.888765
vt 0.425494 0.735221
vt 0.425494 0.888765
vt 0.329826 0.730295
vt 0.502536 0.730295
vt 0.502536 0.903004
vt 0.329826 0.903004
vt 0.465924 0.880312
vt 0.461031 0.879374
vt 0.472123 0.876921
vt 0.449229 0.875412
vt 0.424674 0.839585
vt 0.494388 0.844082
vt 0.459620 0.711035
vt 0.489213 0.732114
vt 0.426878 0.728080
vt 0.438344 0.716288
vt 0.484012 0.874141
vt 0.480803 0.719036
vt 0.421552 0.752476
vt 0.492458 0.757064
vt 0.438213 0.871137
vt 0.455198 0.879651
vt 0.421552 0.914299
vt 0.455752 0.929248
vt 0.492068 0.918189
vn 0.819000 0.556300 0.140300
vn 0.637200 0.337400 -0.692900
vn 0.963400 0.265300 0.037200
vn -0.449300 0.274700 -0.850100
vn 0.120900 0.326500 -0.937400
vn -0.113400 0.634000 0.765000
vn 0.742000 0.276400 0.610800
vn -0.947900 0.318500 0.006300
vn 0.746800 0.444600 0.494600
vn -0.776100 0.602500 -0.186400
vn -0.462200 0.867600 -0.183300
vn -0.648800 0.604700 -0.462000
vn 0.979200 0.195800 0.052300
vn -0.259200 0.956900 -0.131100
vn 0.282900 0.956800 0.067500
vn -0.805500 0.368000 -0.464400
vn -0.812300 0.219400 -0.540300
vn 0.896200 0.378900 0.230900
vn -0.942800 0.031300 -0.331900
vn 0.937600 -0.026400 0.346700
vn -0.918800 0.223200 -0.325500
vn 0.905700 0.263800 0.331900
vn 0.903900 0.279900 0.323400
vn 0.276300 0.957800 0.079200
vn -0.835700 0.397200 -0.379200
vn 0.727000 0.617600 0.300100
vn -0.704700 0.634600 -0.317400
vn -0.668000 0.593500 -0.449000
vn -0.468200 0.258200 -0.845100
vn -0.459600 0.626200 -0.629800
vn -0.372400 -0.681000 -0.630500
vn -0.468200 -0.258200 -0.845100
vn 0.473100 0.246900 -0.845700
vn 0.353700 0.689200 -0.632400
vn 0.217600 -0.764300 -0.607000
vn 0.473100 -0.246900 -0.845700
vn 0.919100 -0.237900 -0.314200
vn 0.919100 0.237900 -0.314200
vn 0.719000 0.655400 -0.231100
vn 0.678700 -0.701200 -0.218100
vn 0.938000 -0.241700 0.248300
vn 0.950500 0.246900 0.188600
vn 0.802200 0.575500 0.159100
vn 0.704400 -0.684900 0.186400
vn 0.731500 0.593600 0.335600
vn 0.681300 -0.661900 0.312600
vn 0.754300 -0.325800 0.569900
vn 0.771200 0.256500 0.582600
vn 0.340100 0.592900 0.729900
vn 0.437400 -0.595100 0.674200
vn 0.545300 -0.325200 0.772600
vn 0.468200 0.258200 0.845100
vn -0.473100 0.246900 0.845700
vn -0.353700 0.689100 0.632400
vn -0.363800 -0.666900 0.650300
vn -0.473100 -0.246900 0.845700
vn -0.919100 0.237900 0.314200
vn -0.705300 0.671700 0.226700
vn -0.744400 -0.623400 0.239200
vn -0.919100 -0.237900 0.314200
vn -0.950500 -0.246900 -0.188600
vn -0.638100 -0.633200 -0.438000
vn -0.412400 0.867800 -0.277200
vn -0.771200 -0.256600 -0.582600
vn -0.771200 0.256600 -0.582600
vn -0.256800 -0.950300 -0.176300
vn -0.118700 -0.972400 -0.201000
vn -0.238000 0.914900 -0.326100
vn 0.059500 -0.984300 -0.166100
vn 0.146400 0.954000 -0.261800
vn 0.322600 -0.944700 -0.059400
vn 0.378000 0.912600 -0.155700
vn 0.504700 0.857500 0.100100
vn 0.437900 -0.894800 0.086900
vn 0.451600 0.867800 0.207200
vn 0.368200 -0.914300 0.168900
vn 0.119800 -0.975500 0.184700
vn 0.146700 0.937700 0.315000
vn -0.073700 -0.988500 0.131700
vn -0.146400 0.954000 0.261800
vn -0.251000 -0.966700 0.049800
vn -0.369400 0.913500 0.170500
vn -0.504700 0.857500 -0.100100
vn -0.950500 0.246900 -0.188600
vn -0.325100 -0.943100 -0.069100
vn -0.802200 0.575500 -0.159100
vn -0.770100 -0.619400 -0.152800
vn -0.532400 0.617000 0.579600
vn 0.273800 0.800300 0.533500
vn 0.004300 -1.000000 0.001600
vn -0.462100 0.823600 0.328700
vn 0.833900 0.523800 0.173900
vn 0.632500 0.341300 -0.695300
vn 0.878700 0.447400 -0.166600
vn -0.384700 0.390000 -0.836600
vn 0.124100 0.329100 -0.936100
vn -0.035100 0.655600 0.754300
vn 0.662000 0.119400 0.739900
vn -0.976500 0.166300 0.136700
vn -0.623000 0.758600 -0.190800
vn 0.838100 0.423400 0.343900
vn -0.286800 0.956500 -0.054400
vn -0.728800 0.559000 -0.395500
vn -0.148500 0.973200 -0.175500
vn 0.243500 0.969500 -0.026700
vn 0.439300 0.877300 0.193300
vn -0.024800 -0.998300 0.052700
vn 0.774100 0.564000 0.287500
vn -0.657200 0.567100 -0.496500
vn -0.412800 0.211300 -0.886000
vn -0.385200 0.606900 -0.695200
vn -0.356000 -0.678500 -0.642600
vn -0.412800 -0.211300 -0.886000
vn 0.008400 -0.999800 -0.017800
vn 0.920700 -0.254300 -0.295900
vn 0.920700 0.254300 -0.295900
vn 0.721500 0.625500 -0.297100
vn 0.673400 -0.728800 -0.124000
vn 0.934400 -0.304000 0.185400
vn 0.735700 -0.661400 0.146000
vn 0.696300 0.488400 0.526000
vn 0.663600 -0.555300 0.501300
vn 0.745900 -0.303800 0.592800
vn 0.761400 0.232700 0.605100
vn 0.385200 0.606900 0.695200
vn 0.460200 -0.602700 0.651900
vn 0.412800 -0.211300 0.886000
vn 0.412800 0.211300 0.886000
vn -0.920700 0.254300 0.295900
vn -0.709600 0.623800 0.327600
vn -0.734800 -0.662500 0.145800
vn -0.920700 -0.254300 0.295900
vn -0.629100 -0.615000 -0.475300
vn -0.761400 -0.232700 -0.605100
vn -0.761400 0.232700 -0.605100
vn -0.762600 -0.626200 -0.162000
vn -0.575700 0.632500 0.518100
vn 0.094200 0.933900 0.344900
vn -0.596300 0.793600 0.120500
vn 0.002700 -1.000000 -0.005800
vn 0.007800 -0.999700 -0.023400
vn -0.006900 -0.996900 0.078800
vn 0.012600 -0.999700 -0.020600
vn 0.327000 -0.742400 -0.584700
vn -0.353800 0.689200 0.632400
vn 0.006500 -0.999900 -0.013800
vn 0.014200 -0.999400 -0.030100
vn -0.063000 -0.996100 0.061300
vn 0.032300 0.825900 0.563000
vn -0.004700 -1.000000 -0.001700
vn -0.332800 0.932000 0.143200
vn -0.779100 0.602600 -0.172900
vn -0.937500 0.014400 -0.347800
vn -0.542600 0.703600 0.458700
vn -0.009300 0.727000 0.686600
vn -0.485500 0.695700 0.529400
vn -0.103600 0.712000 0.694500
vn 0.937400 -0.014200 0.347900
usemtl Material_pika.png.002
s off
f 4/1/1 5/2/1 6/3/1
f 7/1/2 8/2/2 9/4/2
f 8/1/3 6/2/3 10/4/3
f 11/1/4 12/2/4 13/3/4
f 12/1/5 7/2/5 9/3/5
f 2/5/6 14/2/6 3/6/6
f 14/1/7 15/2/7 16/4/7
f 17/1/8 18/2/8 19/3/8
f 16/1/9 20/2/9 21/4/9
f 22/4/10 23/1/10 24/3/10
f 24/1/11 25/2/11 26/3/11
f 27/1/12 28/2/12 11/4/12
f 5/1/13 29/2/13 6/3/13
f 28/1/14 26/2/14 12/4/14
f 26/1/15 4/2/15 8/3/15
f 30/1/16 27/2/16 11/3/16
f 30/1/17 11/2/17 31/3/17
f 6/1/18 29/2/18 32/3/18
f 30/1/19 17/2/19 23/3/19
f 15/1/20 29/2/20 20/3/20
f 30/1/21 23/2/21 22/3/21
f 20/1/22 29/2/22 33/3/22
f 33/1/23 29/2/23 5/3/23
f 4/3/24 26/4/24 25/1/24
f 30/1/25 22/2/25 27/3/25
f 5/3/26 4/4/26 33/2/26
f 27/4/27 22/1/27 28/3/27
f 34/7/28 35/8/28 36/9/28
f 37/7/29 38/8/29 39/9/29
f 38/7/30 36/8/30 40/9/30
f 41/7/31 42/8/31 43/10/31
f 42/7/32 37/8/32 44/10/32
f 45/7/33 39/8/33 46/9/33
f 39/7/34 40/8/34 46/10/34
f 43/7/35 44/8/35 47/10/35
f 44/7/36 45/8/36 48/10/36
f 48/7/37 49/8/37 50/9/37
f 49/7/38 46/8/38 50/10/38
f 46/7/39 51/8/39 52/10/39
f 47/7/40 48/8/40 53/9/40
f 53/7/41 50/8/41 54/10/41
f 50/7/42 52/8/42 55/10/42
f 52/7/43 56/8/43 57/10/43
f 58/7/44 53/8/44 54/9/44
f 57/7/45 59/8/45 60/9/45
f 61/7/46 54/8/46 62/10/46
f 54/7/47 55/8/47 63/10/47
f 55/7/48 57/8/48 64/9/48
f 64/7/49 60/8/49 65/9/49
f 62/7/50 63/8/50 66/10/50
f 63/7/51 67/8/51 68/10/51
f 67/7/52 64/8/52 69/9/52
f 70/7/53 69/8/53 71/9/53
f 69/7/54 65/8/54 71/10/54
f 66/7/55 68/8/55 72/9/55
f 68/7/56 70/8/56 72/10/56
f 73/7/57 71/8/57 74/10/57
f 71/7/58 75/8/58 76/10/58
f 77/7/59 72/8/59 78/9/59
f 72/7/60 73/8/60 74/9/60
f 78/7/61 74/8/61 79/10/61
f 80/7/62 79/8/62 41/10/62
f 35/7/63 81/8/63 36/9/63
f 79/7/64 82/8/64 42/10/64
f 82/7/65 34/8/65 38/9/65
f 83/7/66 80/8/66 41/9/66
f 83/7/67 41/8/67 43/9/67
f 36/7/68 81/8/68 40/9/68
f 83/7/69 43/8/69 47/9/69
f 40/7/70 81/8/70 51/9/70
f 83/7/71 47/8/71 58/9/71
f 51/7/72 81/8/72 56/9/72
f 56/7/73 81/8/73 59/9/73
f 83/7/74 58/8/74 61/9/74
f 59/7/75 81/8/75 60/9/75
f 83/7/76 61/8/76 62/9/76
f 83/7/77 62/8/77 66/9/77
f 60/7/78 81/8/78 65/9/78
f 83/7/79 66/8/79 77/9/79
f 65/7/80 81/8/80 75/9/80
f 83/7/81 77/8/81 84/9/81
f 75/7/82 81/8/82 85/9/82
f 85/7/83 81/8/83 35/9/83
f 34/9/84 82/10/84 74/7/84
f 83/7/85 84/8/85 80/9/85
f 35/9/86 34/10/86 85/8/86
f 84/7/87 78/8/87 79/9/87
f 18/1/88 86/5/88 87/6/88
f 21/3/89 25/4/89 3/5/89
f 1/11/90 88/12/90 2/13/90
f 89/2/91 25/3/91 87/5/91
f 8/4/92 4/1/92 6/3/92
f 8/2/93 10/3/93 9/4/93
f 6/2/94 32/3/94 10/4/94
f 31/4/95 11/1/95 13/3/95
f 13/4/96 12/1/96 9/3/96
f 14/2/97 16/3/97 3/6/97
f 15/2/98 20/3/98 16/4/98
f 23/4/99 17/1/99 19/3/99
f 22/1/100 24/2/100 28/3/100
f 20/2/101 33/3/101 21/4/101
f 28/4/102 24/1/102 26/3/102
f 28/2/103 12/3/103 11/4/103
f 26/2/104 7/3/104 12/4/104
f 7/4/105 26/1/105 8/3/105
f 21/2/106 4/3/106 25/1/106
f 86/14/107 17/15/107 15/16/107
f 4/4/108 21/1/108 33/2/108
f 38/10/109 34/7/109 36/9/109
f 45/10/110 37/7/110 39/9/110
f 39/10/111 38/7/111 40/9/111
f 42/8/112 44/9/112 43/10/112
f 37/8/113 45/9/113 44/10/113
f 49/10/33 45/7/33 46/9/33
f 40/8/34 51/9/34 46/10/34
f 9/17/114 32/18/114 31/19/114
f 45/8/36 49/9/36 48/10/36
f 53/10/115 48/7/115 50/9/115
f 46/8/116 52/9/116 50/10/116
f 51/8/117 56/9/117 52/10/117
f 58/10/118 47/7/118 53/9/118
f 50/8/119 55/9/119 54/10/119
f 56/8/43 59/9/43 57/10/43
f 61/10/120 58/7/120 54/9/120
f 64/10/121 57/7/121 60/9/121
f 54/8/122 63/9/122 62/10/122
f 55/8/123 67/9/123 63/10/123
f 67/10/124 55/7/124 64/9/124
f 69/10/125 64/7/125 65/9/125
f 63/8/126 68/9/126 66/10/126
f 67/8/127 70/9/127 68/10/127
f 70/10/128 67/7/128 69/9/128
f 73/10/53 70/7/53 71/9/53
f 70/8/56 73/9/56 72/10/56
f 77/10/55 66/7/55 72/9/55
f 52/8/42 57/9/42 55/10/42
f 71/8/129 76/9/129 74/10/129
f 75/8/130 85/9/130 76/10/130
f 84/10/131 77/7/131 78/9/131
f 78/10/132 72/7/132 74/9/132
f 74/8/61 82/9/61 79/10/61
f 79/8/133 42/9/133 41/10/133
f 82/8/134 37/9/134 42/10/134
f 37/10/135 82/7/135 38/9/135
f 76/8/84 34/9/84 74/7/84
f 34/10/86 76/7/86 85/8/86
f 80/10/136 84/7/136 79/9/136
f 19/4/137 18/1/137 87/6/137
f 16/2/138 21/3/138 3/5/138
f 25/3/139 24/4/139 87/5/139
f 2/13/140 88/12/140 86/14/140
f 13/20/141 9/17/141 31/19/141
f 2/13/142 15/16/142 14/21/142
f 15/16/107 2/13/107 86/14/107
f 9/17/143 10/22/143 32/18/143
f 44/8/144 48/9/144 47/10/144
f 65/8/145 75/9/145 71/10/145
f 30/23/146 31/19/146 32/18/146
f 29/24/146 30/23/146 32/18/146
f 29/24/147 17/15/147 30/23/147
f 18/25/148 17/15/148 86/14/148
f 17/15/147 29/24/147 15/16/147
f 25/4/149 89/1/149 3/5/149
f 88/12/150 90/26/150 86/14/150
f 19/1/151 87/5/151 24/4/151
f 23/1/152 19/2/152 24/3/152
usemtl Material_NONE.000
f 86/14/153 90/26/153 87/27/153
f 87/27/154 90/26/154 89/28/154
f 1/11/155 3/29/155 89/28/155
f 90/26/156 88/12/156 89/28/156
f 88/12/157 1/11/157 89/28/157
usemtl Material.033
f 1/11/158 2/13/158 3/29/158
